<?xml version="1.0" encoding="utf-8"?>
<!-- Generator: Adobe Illustrator 16.0.0, SVG Export Plug-In . SVG Version: 6.00 Build 0)  -->
<!DOCTYPE svg PUBLIC "-//W3C//DTD SVG 1.1//EN" "http://www.w3.org/Graphics/SVG/1.1/DTD/svg11.dtd">
<svg version="1.1" id="Layer_1" xmlns="http://www.w3.org/2000/svg" xmlns:xlink="http://www.w3.org/1999/xlink" x="0px" y="0px"
	 width="1000px" height="200px" viewBox="0 0 1000 200" enable-background="new 0 0 1000 200" xml:space="preserve">
<g>
	<path d="M104.669,21.707v22.462H40.517v26.035h58.877v20.76H40.517v29.78h65.513v22.46H13.801V21.707H104.669z"/>
	<path d="M183.965,131.974c-2.836,4.765-6.551,8.196-11.145,10.296c-4.595,2.098-9.785,3.148-15.57,3.148
		c-6.581,0-12.366-1.277-17.357-3.829c-4.993-2.553-9.104-6.013-12.337-10.381c-3.232-4.366-5.674-9.386-7.316-15.06
		c-1.646-5.672-2.468-11.57-2.468-17.698c0-5.897,0.822-11.597,2.468-17.101c1.643-5.501,4.084-10.351,7.316-14.549
		c3.233-4.195,7.288-7.572,12.167-10.125c4.876-2.553,10.551-3.829,17.017-3.829c5.217,0,10.181,1.106,14.889,3.318
		c4.707,2.212,8.424,5.474,11.146,9.784h0.34V21.707h24.164v121.498h-22.972v-11.23H183.965z M182.944,88.496
		c-0.681-3.344-1.845-6.296-3.489-8.848c-1.646-2.553-3.773-4.622-6.381-6.211c-2.61-1.588-5.899-2.383-9.869-2.383
		c-3.972,0-7.317,0.795-10.04,2.383c-2.723,1.589-4.909,3.688-6.551,6.296c-1.646,2.611-2.837,5.589-3.574,8.934
		c-0.739,3.348-1.106,6.836-1.106,10.465c0,3.403,0.396,6.806,1.191,10.21c0.792,3.402,2.069,6.439,3.829,9.104
		c1.758,2.667,3.97,4.824,6.637,6.466c2.664,1.646,5.871,2.468,9.614,2.468c3.97,0,7.288-0.793,9.955-2.381
		c2.665-1.59,4.792-3.717,6.381-6.382c1.587-2.665,2.723-5.7,3.403-9.104c0.681-3.402,1.021-6.918,1.021-10.551
		C183.965,95.332,183.625,91.844,182.944,88.496z"/>
	<path d="M301.208,143.204l-15.655-59.047h-0.34l-14.975,59.047h-25.014l-27.907-87.975h25.524l16.166,59.728h0.34l14.634-59.728
		h23.482l14.975,59.558h0.34l16.166-59.558h24.845l-27.737,87.975H301.208z"/>
	<path d="M367.231,68.162c2.494-3.744,5.671-6.748,9.529-9.019c3.855-2.268,8.194-3.885,13.018-4.85
		c4.82-0.963,9.669-1.446,14.549-1.446c4.424,0,8.904,0.313,13.443,0.936c4.536,0.625,8.678,1.846,12.422,3.659
		c3.743,1.816,6.807,4.339,9.188,7.572c2.382,3.233,3.574,7.516,3.574,12.847v45.774c0,3.973,0.226,7.773,0.68,11.402
		c0.452,3.631,1.248,6.354,2.383,8.167h-24.504c-0.455-1.36-0.824-2.749-1.106-4.168c-0.285-1.418-0.484-2.864-0.596-4.341
		c-3.857,3.973-8.396,6.752-13.613,8.339c-5.219,1.588-10.55,2.384-15.995,2.384c-4.199,0-8.112-0.513-11.742-1.533
		c-3.632-1.02-6.806-2.608-9.529-4.765c-2.723-2.153-4.85-4.876-6.381-8.167c-1.532-3.29-2.298-7.203-2.298-11.742
		c0-4.99,0.877-9.104,2.638-12.336c1.757-3.234,4.025-5.813,6.807-7.743c2.778-1.928,5.956-3.374,9.529-4.339
		c3.573-0.962,7.174-1.728,10.806-2.297c3.629-0.566,7.203-1.021,10.72-1.361c3.516-0.341,6.637-0.851,9.359-1.532
		s4.876-1.672,6.466-2.978c1.587-1.303,2.324-3.204,2.212-5.7c0-2.608-0.425-4.68-1.276-6.211c-0.851-1.531-1.986-2.722-3.403-3.573
		c-1.419-0.851-3.062-1.417-4.935-1.702c-1.872-0.282-3.887-0.425-6.041-0.425c-4.765,0-8.508,1.021-11.231,3.062
		c-2.723,2.042-4.313,5.446-4.765,10.21h-24.164C363.317,76.614,364.734,71.905,367.231,68.162z M414.962,102.28
		c-1.532,0.509-3.177,0.935-4.935,1.276c-1.76,0.34-3.603,0.625-5.53,0.851c-1.93,0.228-3.857,0.51-5.785,0.851
		c-1.816,0.34-3.603,0.795-5.36,1.36c-1.76,0.569-3.292,1.337-4.595,2.298c-1.305,0.967-2.355,2.186-3.148,3.658
		c-0.795,1.476-1.191,3.348-1.191,5.617c0,2.155,0.396,3.971,1.191,5.443c0.792,1.476,1.872,2.639,3.233,3.49
		c1.361,0.851,2.948,1.445,4.765,1.785c1.813,0.342,3.685,0.512,5.615,0.512c4.765,0,8.45-0.793,11.061-2.384
		c2.608-1.587,4.536-3.487,5.786-5.7c1.247-2.212,2.013-4.449,2.297-6.721c0.282-2.27,0.425-4.084,0.425-5.446v-9.018
		C417.77,101.062,416.493,101.77,414.962,102.28z"/>
	<path d="M484.643,55.229v16.335h0.341c1.132-2.722,2.663-5.246,4.594-7.573c1.927-2.323,4.14-4.309,6.636-5.956
		c2.494-1.643,5.162-2.919,7.998-3.829c2.835-0.906,5.786-1.361,8.85-1.361c1.586,0,3.345,0.284,5.274,0.851v22.461
		c-1.136-0.226-2.496-0.425-4.084-0.595c-1.589-0.17-3.121-0.255-4.594-0.255c-4.425,0-8.168,0.739-11.231,2.212
		c-3.063,1.476-5.53,3.488-7.402,6.041c-1.872,2.552-3.207,5.53-3.999,8.934c-0.795,3.403-1.191,7.091-1.191,11.062v39.647h-24.164
		V55.229H484.643z"/>
	<path d="M587.252,131.974c-2.836,4.765-6.552,8.196-11.145,10.296c-4.596,2.098-9.785,3.148-15.571,3.148
		c-6.581,0-12.366-1.277-17.356-3.829c-4.993-2.553-9.104-6.013-12.337-10.381c-3.233-4.366-5.674-9.386-7.317-15.06
		c-1.646-5.672-2.468-11.57-2.468-17.698c0-5.897,0.822-11.597,2.468-17.101c1.644-5.501,4.084-10.351,7.317-14.549
		c3.233-4.195,7.288-7.572,12.167-10.125c4.876-2.553,10.55-3.829,17.017-3.829c5.216,0,10.181,1.106,14.889,3.318
		c4.706,2.212,8.424,5.474,11.146,9.784h0.341V21.707h24.164v121.498h-22.972v-11.23H587.252z M586.23,88.496
		c-0.68-3.344-1.846-6.296-3.487-8.848c-1.646-2.553-3.773-4.622-6.381-6.211c-2.612-1.588-5.9-2.383-9.87-2.383
		c-3.972,0-7.316,0.795-10.04,2.383c-2.723,1.589-4.907,3.688-6.552,6.296c-1.645,2.611-2.836,5.589-3.572,8.934
		c-0.739,3.348-1.107,6.836-1.107,10.465c0,3.403,0.396,6.806,1.192,10.21c0.792,3.402,2.068,6.439,3.829,9.104
		c1.757,2.667,3.969,4.824,6.636,6.466c2.664,1.646,5.87,2.468,9.614,2.468c3.97,0,7.289-0.793,9.954-2.381
		c2.665-1.59,4.792-3.717,6.381-6.382s2.724-5.7,3.403-9.104c0.681-3.402,1.021-6.918,1.021-10.551
		C587.252,95.332,586.911,91.844,586.23,88.496z"/>
	<path d="M683.054,143.204h-16.165V93.517l-46.966-71.81h19.229l36.415,57.856l35.563-57.856h18.38l-46.457,71.81V143.204z"/>
	<path d="M792.64,145.076c-3.744,0-6.722-1.051-8.934-3.148c-2.211-2.098-3.319-5.53-3.319-10.295
		c-3.97,4.765-8.592,8.197-13.867,10.295c-5.276,2.098-10.975,3.148-17.102,3.148c-3.973,0-7.717-0.426-11.23-1.276
		c-3.519-0.851-6.609-2.268-9.275-4.254c-2.665-1.983-4.764-4.536-6.295-7.657c-1.531-3.119-2.297-6.891-2.297-11.316
		c0-4.99,0.851-9.074,2.552-12.252c1.702-3.174,3.939-5.757,6.723-7.742c2.778-1.983,5.956-3.489,9.527-4.51
		c3.574-1.021,7.232-1.872,10.977-2.552c3.971-0.793,7.741-1.388,11.315-1.787c3.574-0.396,6.723-0.963,9.445-1.702
		c2.721-0.737,4.875-1.813,6.466-3.233c1.586-1.417,2.382-3.488,2.382-6.211c0-3.174-0.596-5.727-1.786-7.657
		c-1.192-1.928-2.723-3.403-4.595-4.424c-1.873-1.021-3.973-1.702-6.295-2.042c-2.327-0.34-4.624-0.511-6.894-0.511
		c-6.126,0-11.231,1.165-15.314,3.489c-4.084,2.327-6.295,6.721-6.636,13.188h-14.465c0.227-5.446,1.361-10.04,3.403-13.783
		c2.043-3.744,4.765-6.778,8.167-9.104c3.403-2.324,7.319-3.999,11.743-5.02c4.423-1.021,9.073-1.532,13.952-1.532
		c3.971,0,7.913,0.285,11.828,0.851c3.912,0.569,7.458,1.731,10.635,3.488c3.176,1.76,5.728,4.228,7.657,7.402
		c1.928,3.177,2.892,7.317,2.892,12.422v45.265c0,3.402,0.197,5.898,0.597,7.487c0.396,1.589,1.728,2.382,3.999,2.382
		c1.247,0,2.723-0.281,4.425-0.852v11.232C800.523,144.338,797.064,145.076,792.64,145.076z M772.391,100.749
		c-2.951,0.625-6.042,1.134-9.274,1.531c-3.233,0.398-6.494,0.851-9.785,1.36c-3.29,0.512-6.239,1.336-8.847,2.469
		c-2.612,1.134-4.739,2.752-6.382,4.85c-1.646,2.101-2.468,4.963-2.468,8.592c0,2.383,0.48,4.398,1.446,6.041
		c0.962,1.646,2.212,2.979,3.743,3.999c1.533,1.021,3.346,1.761,5.445,2.214c2.099,0.453,4.226,0.68,6.382,0.68
		c4.764,0,8.85-0.651,12.253-1.957c3.403-1.303,6.182-2.949,8.337-4.936c2.154-1.983,3.742-4.139,4.764-6.466
		c1.021-2.324,1.531-4.509,1.531-6.552V97.771C777.722,99.132,775.34,100.126,772.391,100.749z"/>
	<path d="M830.074,55.229v13.953h0.341c6.012-10.662,15.541-15.996,28.587-15.996c5.787,0,10.606,0.795,14.464,2.382
		c3.855,1.59,6.978,3.802,9.359,6.637c2.384,2.836,4.055,6.211,5.021,10.125c0.962,3.914,1.447,8.253,1.447,13.018v57.856h-14.464
		V83.646c0-5.445-1.591-9.755-4.767-12.932c-3.177-3.175-7.544-4.765-13.102-4.765c-4.424,0-8.253,0.681-11.485,2.042
		c-3.233,1.361-5.93,3.292-8.083,5.785c-2.156,2.497-3.773,5.419-4.851,8.764c-1.079,3.347-1.617,7.006-1.617,10.976v49.688h-14.464
		V55.229H830.074z"/>
	<path d="M977.096,168.049c-6.58,7.147-16.903,10.721-30.969,10.721c-4.083,0-8.253-0.456-12.507-1.362
		c-4.255-0.908-8.112-2.382-11.57-4.425c-3.464-2.041-6.326-4.708-8.595-7.996c-2.271-3.293-3.517-7.318-3.742-12.082h14.464
		c0.11,2.607,0.935,4.82,2.466,6.636c1.531,1.813,3.403,3.289,5.617,4.425c2.211,1.133,4.619,1.957,7.231,2.467
		c2.608,0.512,5.105,0.766,7.487,0.766c4.764,0,8.789-0.824,12.082-2.467c3.288-1.645,6.011-3.914,8.167-6.807
		c2.153-2.893,3.713-6.381,4.68-10.466c0.961-4.083,1.446-8.563,1.446-13.442v-5.785h-0.341c-2.497,5.445-6.269,9.443-11.315,11.996
		c-5.05,2.552-10.409,3.828-16.082,3.828c-6.58,0-12.311-1.189-17.185-3.572c-4.879-2.383-8.965-5.588-12.253-9.615
		c-3.292-4.025-5.759-8.734-7.402-14.123c-1.646-5.387-2.466-11.088-2.466-17.102c0-5.217,0.68-10.577,2.04-16.081
		c1.363-5.501,3.63-10.491,6.807-14.974c3.176-4.48,7.374-8.168,12.592-11.061c5.218-2.893,11.628-4.339,19.23-4.339
		c5.557,0,10.661,1.22,15.314,3.659c4.65,2.44,8.28,6.099,10.891,10.976h0.17V55.229h13.613v80.487
		C986.967,150.123,983.675,160.902,977.096,168.049z M958.635,128.484c3.344-1.982,6.04-4.594,8.083-7.827
		c2.041-3.233,3.543-6.892,4.509-10.975c0.962-4.085,1.447-8.169,1.447-12.252c0-3.855-0.457-7.658-1.363-11.401
		c-0.908-3.744-2.355-7.118-4.338-10.125c-1.987-3.004-4.568-5.416-7.744-7.232c-3.177-1.813-7.034-2.723-11.57-2.723
		c-4.652,0-8.623,0.88-11.911,2.638c-3.293,1.76-5.984,4.113-8.083,7.062c-2.101,2.952-3.632,6.355-4.596,10.21
		c-0.964,3.858-1.444,7.886-1.444,12.082c0,3.972,0.395,7.942,1.189,11.911c0.794,3.973,2.154,7.572,4.084,10.806
		c1.928,3.233,4.48,5.845,7.657,7.827c3.175,1.986,7.148,2.979,11.912,2.979C951.232,131.463,955.287,130.471,958.635,128.484z"/>
</g>
</svg>
